<svg width="32" height="32" viewBox="0 0 32 32" fill="none" xmlns="http://www.w3.org/2000/svg">
<path d="M18.6154 23.8953C18.2246 23.8374 17.8904 24.1464 17.8904 24.5327V29.0392H2.76078V3.28756H17.8904V7.77481C17.8904 8.09668 18.1173 8.38639 18.4263 8.43147C18.8171 8.48942 19.1512 8.1804 19.1512 7.79412V2.64381C19.1512 2.28971 18.8676 2 18.5208 2H2.13042C1.78368 2 1.5 2.28971 1.5 2.64381V29.683C1.5 30.0371 1.78368 30.3269 2.13042 30.3269H18.5208C18.8676 30.3269 19.1512 30.0371 19.1512 29.683V24.552C19.1512 24.2301 18.9243 23.9404 18.6154 23.8953Z" fill="black"/>
<path d="M30.3156 15.7129L24.0116 9.27499C23.7594 9.03037 23.3623 9.03677 23.1228 9.28784C22.8895 9.53892 22.8895 9.93166 23.1228 10.1827L28.3488 15.5198H9.08372C8.7748 15.5198 8.49745 15.7387 8.44703 16.0541C8.37771 16.4597 8.68657 16.8073 9.07113 16.8073H28.3551L23.1228 22.1444C22.8706 22.389 22.8643 22.8011 23.1102 23.0521C23.3497 23.3097 23.7532 23.3161 23.999 23.065C24.0054 23.0585 24.0116 23.0521 24.0116 23.0521L30.3157 16.6142C30.5615 16.376 30.5615 15.964 30.3156 15.7129Z" fill="black"/>
</svg>
