<svg width="32" height="32" viewBox="0 0 32 32" fill="none" xmlns="http://www.w3.org/2000/svg">
<path d="M14.2113 1.28003C14.0596 1.28011 13.9128 1.33407 13.7972 1.43228C13.6816 1.5305 13.6046 1.66659 13.58 1.81628L12.9575 5.62753C12.209 5.84528 11.4952 6.13908 10.8225 6.50503L7.6775 4.25878C7.55437 4.17085 7.40407 4.12939 7.25327 4.14175C7.10247 4.1541 6.96093 4.21948 6.85375 4.32628L4.36375 6.81378C4.25734 6.92026 4.19187 7.06084 4.17884 7.21081C4.16581 7.36078 4.20605 7.51054 4.2925 7.63378L6.505 10.7988C6.13341 11.4754 5.8331 12.1932 5.61 12.9488L1.815 13.58C1.66577 13.6052 1.53027 13.6824 1.43255 13.7979C1.33484 13.9135 1.28123 14.0599 1.28125 14.2113V17.7313C1.28098 17.8817 1.3337 18.0274 1.43016 18.1429C1.52662 18.2583 1.66066 18.3361 1.80875 18.3625L5.60625 19.035C5.82814 19.7893 6.12654 20.5076 6.49875 21.185L4.25875 24.3188C4.17082 24.4419 4.12936 24.5922 4.14172 24.743C4.15407 24.8938 4.21945 25.0354 4.32625 25.1425L6.815 27.6325C6.92125 27.7388 7.06151 27.8043 7.2112 27.8176C7.36089 27.8308 7.51048 27.791 7.63375 27.705L10.805 25.485C11.4797 25.8531 12.1952 26.1491 12.9463 26.3688L13.58 30.185C13.6049 30.3345 13.682 30.4703 13.7975 30.5683C13.9131 30.6662 14.0597 30.72 14.2113 30.72H17.7313C17.8819 30.7202 18.0277 30.6674 18.1432 30.5706C18.2587 30.4739 18.3363 30.3396 18.3625 30.1913L19.0413 26.36C19.7892 26.137 20.5014 25.8366 21.1725 25.4663L24.365 27.7063C24.4882 27.7927 24.638 27.833 24.788 27.8199C24.9379 27.8069 25.0785 27.7414 25.185 27.635L27.6737 25.1438C27.781 25.0363 27.8466 24.8942 27.8587 24.7428C27.8708 24.5915 27.8288 24.4407 27.74 24.3175L25.4637 21.1575C25.8277 20.4896 26.1209 19.7817 26.3387 19.0388L30.19 18.3638C30.3383 18.3376 30.4726 18.2599 30.5694 18.1445C30.6661 18.029 30.719 17.8831 30.7187 17.7325V14.2125C30.7187 14.0608 30.6647 13.9141 30.5665 13.7985C30.4683 13.6829 30.3322 13.6059 30.1825 13.5813L26.3375 12.9525C26.1182 12.2105 25.8242 11.5039 25.46 10.8363L27.705 7.63753C27.7914 7.51429 27.8317 7.36453 27.8187 7.21456C27.8056 7.06459 27.7402 6.92401 27.6337 6.81753L25.1437 4.32878C25.0363 4.22153 24.8942 4.15598 24.7428 4.14384C24.5914 4.1317 24.4407 4.17377 24.3175 4.26253L21.1663 6.52878C20.4948 6.15991 19.7822 5.86114 19.0325 5.64003L18.3625 1.81003C18.3366 1.66148 18.259 1.52686 18.1435 1.4299C18.0281 1.33294 17.882 1.27986 17.7313 1.28003H14.2113ZM14.7563 2.56003H17.1938L17.8313 6.19878C17.8525 6.32082 17.9086 6.43408 17.9929 6.52483C18.0773 6.61558 18.1861 6.67991 18.3063 6.71003C19.2423 6.94328 20.1213 7.31302 20.9238 7.79878C21.031 7.86378 21.155 7.89583 21.2804 7.89094C21.4057 7.88605 21.5269 7.84444 21.6288 7.77128L24.6237 5.61878L26.3475 7.34253L24.215 10.3813C24.1438 10.4826 24.1035 10.6025 24.0991 10.7263C24.0946 10.8501 24.1262 10.9726 24.19 11.0788C24.671 11.8794 25.0357 12.7529 25.2687 13.6838C25.2991 13.805 25.3643 13.9147 25.4562 13.9993C25.5482 14.084 25.6629 14.1398 25.7862 14.16L29.4387 14.7575V17.195L25.7787 17.8375C25.6566 17.8591 25.5434 17.9158 25.4529 18.0006C25.3623 18.0853 25.2984 18.1946 25.2687 18.315C25.0384 19.2447 24.6734 20.1182 24.1925 20.9188C24.1279 21.026 24.0963 21.1499 24.1014 21.275C24.1065 21.4 24.1482 21.5209 24.2212 21.6225L26.3837 24.6238L24.66 26.3488L21.6263 24.22C21.5244 24.1487 21.4039 24.1085 21.2796 24.1045C21.1553 24.1005 21.0325 24.1329 20.9263 24.1975C20.1278 24.6833 19.2478 25.0548 18.315 25.2913C18.1954 25.3214 18.0871 25.3855 18.003 25.4757C17.919 25.566 17.8628 25.6786 17.8413 25.8L17.195 29.44H14.7538L14.1513 25.8163C14.1307 25.693 14.0746 25.5784 13.9897 25.4867C13.9049 25.395 13.795 25.3301 13.6738 25.3C12.7372 25.0692 11.8541 24.7 11.0463 24.215C10.9402 24.1515 10.818 24.1201 10.6944 24.1245C10.5709 24.1289 10.4512 24.1691 10.35 24.24L7.34 26.3488L5.615 24.6213L7.7425 21.6475C7.81521 21.5456 7.85645 21.4247 7.86111 21.2996C7.86578 21.1745 7.83367 21.0508 7.76875 20.9438C7.2785 20.1337 6.90773 19.2507 6.67375 18.31C6.64382 18.1902 6.57985 18.0816 6.48958 17.9973C6.39931 17.9131 6.28659 17.8567 6.165 17.835L2.56125 17.195V14.7538L6.1625 14.155C6.28561 14.1346 6.40006 14.0787 6.49179 13.994C6.58351 13.9094 6.64849 13.7998 6.67875 13.6788C6.91474 12.7348 7.28533 11.852 7.77375 11.0438C7.83816 10.9377 7.87032 10.8151 7.86633 10.6911C7.86233 10.567 7.82235 10.4468 7.75125 10.345L5.64875 7.34003L7.375 5.61503L10.3588 7.74753C10.4603 7.81991 10.5807 7.86107 10.7053 7.86596C10.8298 7.87084 10.9531 7.83924 11.06 7.77503C11.8636 7.29238 12.7487 6.92616 13.6863 6.69628C13.8081 6.66628 13.9185 6.6011 14.0036 6.50887C14.0887 6.41664 14.1449 6.30141 14.165 6.17753L14.7563 2.56003ZM16 10.88C13.1799 10.88 10.88 13.1799 10.88 16C10.88 18.8201 13.1799 21.12 16 21.12C18.8201 21.12 21.12 18.8201 21.12 16C21.12 13.1799 18.8201 10.88 16 10.88ZM16 12.16C18.1284 12.16 19.84 13.8717 19.84 16C19.84 18.1284 18.1284 19.84 16 19.84C13.8716 19.84 12.16 18.1284 12.16 16C12.16 13.8717 13.8716 12.16 16 12.16Z" fill="black"/>
</svg>
